# xmcd
#
# Track frame offsets:
#	150
#	16625
#	28313
#	44845
#	59448
#	75972
#	90205
#	107008
#	122632
#	136673
#	148625
#	164824
#	176930
#	196361
#	207322
#	220742
#	230908
#	246068
#	257557
#	271216
#
# Disc length: 3825 seconds
#
# Revision: 1
# Processed by: cddbd v1.5.2PL0 Copyright (c) Steve Scherf et al.
# Submitted via: audiograbber 1.83.01
#
DISCID=1e0eef14
DTITLE=Tom Astor - Memories CD1
DYEAR=2013
DGENRE=Country
TTITLE0=Hey Susanne
TTITLE1=Fremde in der Nacht
TTITLE2=Jambalaya
TTITLE3=Ich bin ja so allein
TTITLE4=Rot ist der Wein
TTITLE5=Sag mir Quando, sag mir wann
TTITLE6=Blue Bayou
TTITLE7=Marbella Marbella Marbella
TTITLE8=Quando m'innamoro
TTITLE9=Unter fremden Sternen
TTITLE10=My Happiness
TTITLE11=Schön ist die Welt
TTITLE12=Adios Amigo
TTITLE13=Wunderbar ist die Welt
TTITLE14=Ich werde jede Nacht von ihnen träumen
TTITLE15=Edgar Wallace Tango
TTITLE16=Der Wind der leis' ein Lied singt
TTITLE17=Manchmal happy, manchmal sauer
TTITLE18=Sei Vorrei Sapere
TTITLE19=Viva Italia
EXTD=
EXTT0=
EXTT1=
EXTT2=
EXTT3=
EXTT4=
EXTT5=
EXTT6=
EXTT7=
EXTT8=
EXTT9=
EXTT10=
EXTT11=
EXTT12=
EXTT13=
EXTT14=
EXTT15=
EXTT16=
EXTT17=
EXTT18=
EXTT19=
PLAYORDER=
